<svg width="24" height="24" viewBox="0 0 24 24" fill="none" xmlns="http://www.w3.org/2000/svg">
<circle cx="12" cy="12" r="12" fill="#CBFADB"/>
<path d="M9.77375 6.37813C9.74902 6.28271 9.74335 6.18336 9.75705 6.08575C9.77075 5.98814 9.80356 5.89419 9.85359 5.80927C9.90363 5.72435 9.96991 5.65012 10.0487 5.59083C10.1274 5.53155 10.2171 5.48836 10.3125 5.46375C11.4193 5.17797 12.5806 5.17797 13.6875 5.46375C13.785 5.48633 13.877 5.52819 13.9581 5.58687C14.0392 5.64556 14.1077 5.71987 14.1596 5.80545C14.2115 5.89102 14.2457 5.98611 14.2603 6.08513C14.2749 6.18415 14.2695 6.28508 14.2445 6.38199C14.2195 6.47889 14.1753 6.56981 14.1146 6.64937C14.0539 6.72894 13.9779 6.79555 13.891 6.84529C13.8041 6.89502 13.7082 6.92686 13.6089 6.93894C13.5095 6.95102 13.4087 6.9431 13.3125 6.91563C12.4516 6.69365 11.5484 6.69365 10.6875 6.91563C10.4951 6.96542 10.2907 6.93677 10.1194 6.83598C9.94805 6.7352 9.82373 6.57052 9.77375 6.37813ZM7.18375 7.27125C6.38309 8.08699 5.80248 9.09253 5.49625 10.1938C5.46995 10.2887 5.46262 10.3879 5.47468 10.4857C5.48673 10.5835 5.51795 10.678 5.56653 10.7637C5.61511 10.8494 5.68011 10.9248 5.75781 10.9854C5.83551 11.046 5.92439 11.0906 6.01937 11.1169C6.08456 11.1347 6.15181 11.1437 6.21937 11.1438C6.38337 11.1437 6.54283 11.0899 6.67332 10.9905C6.80381 10.8912 6.89814 10.7518 6.94187 10.5938C7.18004 9.73758 7.63164 8.95588 8.25437 8.32188C8.32336 8.25158 8.37782 8.16838 8.41465 8.07704C8.45149 7.98569 8.46997 7.88798 8.46904 7.78949C8.46811 7.69101 8.44779 7.59367 8.40924 7.50303C8.37069 7.41239 8.31467 7.33024 8.24437 7.26125C8.17408 7.19227 8.09088 7.1378 7.99953 7.10097C7.90819 7.06414 7.81048 7.04566 7.71199 7.04659C7.6135 7.04752 7.51616 7.06784 7.42553 7.10638C7.33489 7.14493 7.25273 7.20095 7.18375 7.27125ZM6.94125 13.405C6.88483 13.2171 6.75701 13.0587 6.58521 12.964C6.41341 12.8692 6.21131 12.8455 6.02225 12.898C5.8332 12.9505 5.67224 13.075 5.57391 13.2448C5.47557 13.4146 5.4477 13.6161 5.49625 13.8063C5.80203 14.908 6.38269 15.9141 7.18375 16.73C7.32571 16.859 7.51173 16.9288 7.70353 16.9248C7.89534 16.9209 8.07834 16.8436 8.21492 16.7089C8.35149 16.5742 8.43124 16.3922 8.43776 16.2005C8.44429 16.0088 8.37709 15.8218 8.25 15.6781C7.62845 15.0434 7.17814 14.2612 6.94125 13.405ZM13.3125 17.0844C12.4516 17.3067 11.5484 17.3067 10.6875 17.0844C10.5913 17.0569 10.4905 17.049 10.3911 17.0611C10.2918 17.0731 10.1959 17.105 10.109 17.1547C10.0221 17.2045 9.94612 17.2711 9.88541 17.3506C9.8247 17.4302 9.78053 17.5211 9.7555 17.618C9.73047 17.7149 9.72509 17.8159 9.73967 17.9149C9.75426 18.0139 9.78851 18.109 9.84042 18.1946C9.89233 18.2801 9.96084 18.3544 10.0419 18.4131C10.123 18.4718 10.215 18.5137 10.3125 18.5363C11.4193 18.822 12.5806 18.822 13.6875 18.5363C13.785 18.5137 13.877 18.4718 13.9581 18.4131C14.0392 18.3544 14.1077 18.2801 14.1596 18.1946C14.2115 18.109 14.2457 18.0139 14.2603 17.9149C14.2749 17.8159 14.2695 17.7149 14.2445 17.618C14.2195 17.5211 14.1753 17.4302 14.1146 17.3506C14.0539 17.2711 13.9779 17.2045 13.891 17.1547C13.8041 17.105 13.7082 17.0731 13.6089 17.0611C13.5095 17.049 13.4087 17.0569 13.3125 17.0844ZM17.9825 12.8831C17.7911 12.831 17.5869 12.8567 17.4145 12.9547C17.2421 13.0528 17.1155 13.2151 17.0625 13.4063C16.8243 14.2624 16.3727 15.0441 15.75 15.6781C15.6106 15.82 15.5333 16.0115 15.535 16.2104C15.5368 16.4093 15.6175 16.5993 15.7594 16.7388C15.9013 16.8782 16.0927 16.9555 16.2916 16.9537C16.4905 16.952 16.6806 16.8713 16.82 16.7294C17.6205 15.9133 18.2011 14.9076 18.5075 13.8063C18.5338 13.7111 18.541 13.6118 18.5288 13.5138C18.5165 13.4159 18.4851 13.3214 18.4363 13.2356C18.3875 13.1498 18.3222 13.0746 18.2442 13.0141C18.1662 12.9536 18.0771 12.9091 17.9819 12.8831H17.9825ZM17.0594 10.595C17.1158 10.7829 17.2436 10.9413 17.4154 11.036C17.5872 11.1308 17.7893 11.1545 17.9784 11.102C18.1674 11.0495 18.3284 10.925 18.4267 10.7552C18.525 10.5854 18.5529 10.3839 18.5044 10.1938C18.1986 9.09197 17.6179 8.08593 16.8169 7.27C16.7492 7.19429 16.6668 7.13312 16.5747 7.0902C16.4827 7.04727 16.3829 7.02349 16.2814 7.0203C16.1799 7.01711 16.0787 7.03457 15.9842 7.07162C15.8896 7.10868 15.8036 7.16455 15.7312 7.23586C15.6589 7.30717 15.6018 7.39242 15.5634 7.48646C15.525 7.58049 15.5061 7.68134 15.5079 7.78289C15.5097 7.88444 15.532 7.98458 15.5736 8.07723C15.6153 8.16988 15.6753 8.25311 15.75 8.32188C16.3716 8.95665 16.8219 9.73877 17.0587 10.595H17.0594Z" fill="#00A96E"/>
</svg>
